<svg width="278" height="322" viewBox="0 0 278 322" fill="none" xmlns="http://www.w3.org/2000/svg">
<path d="M12 0V6H266V0H12Z" fill="#44121C"/>
<path d="M6 6V12H12V6H6Z" fill="#44121C"/>
<path d="M6 12H0V315.5H6V309.5V24V18V12Z" fill="#44121C"/>
<path d="M278 12H272V304V309.5H278V12Z" fill="#44121C"/>
<path d="M272 315.5V309.5H266V315.5H272Z" fill="#44121C"/>
<path d="M272 304H266V309.5H272V304Z" fill="#B14E05"/>
<path d="M266 309.5V304H260V309.5H266Z" fill="#918C74"/>
<path d="M266 309.5H260V315.5H266V309.5Z" fill="#B14E05"/>
<path d="M260 315.5V309.5H254V315.5H260Z" fill="#5B2B2A"/>
<path d="M260 309.5V304L254 303.99L23.5 303.509L18 303.5V309.5H254H260Z" fill="#B14E05"/>
<path d="M254 303.99L260 304V298H254V303.99Z" fill="#B14E05"/>
<path d="M260 304H266V24H260V298V304Z" fill="#B14E05"/>
<path d="M272 12H266V18V24V304H272V12Z" fill="#DC7B05"/>
<path d="M260 24H254V29.5V35.5V298H260V24Z" fill="#853605"/>
<path d="M248 298H254V35.5H248V292V298Z" fill="#ECA65F"/>
<path d="M248 298V292H242.5V298H248Z" fill="#D9D9D9"/>
<path d="M248 35.5H29.5V292H242.5H248V35.5Z" fill="#FFD284"/>
<path d="M29.5 292V298H242.5V292H29.5Z" fill="#FFE5BA"/>
<path d="M23.5 303.509L254 303.99V298H248H242.5H29.5H23.5V303.509Z" fill="#853605"/>
<path d="M266 321.5V315.5H260H254H12H6V321.5H266Z" fill="#44121C"/>
<path d="M254 315.5V309.5H18H12V315.5H254Z" fill="#853605"/>
<path d="M29.5 35.5H23.5V292H29.5V35.5Z" fill="#FFE1AE"/>
<path d="M248 29.5H23.5V35.5H29.5H248V29.5Z" fill="#ECA65F"/>
<path d="M23.5 29.5H18V298H23.5V292V35.5V29.5Z" fill="#853605"/>
<path d="M18 24V29.5H23.5V24H18Z" fill="#B14E05"/>
<path d="M254 29.5V24H23.5V29.5H248H254Z" fill="#853605"/>
<path d="M260 24V18H18V24H23.5H254H260Z" fill="#B14E05"/>
<path d="M12 18V24H18V18H12Z" fill="#918C74"/>
<path d="M12 303.5H18V298V29.5V24H12V303.5Z" fill="#B14E05"/>
<path d="M6 309.5H12V303.5V24H6V309.5Z" fill="#853605"/>
<path d="M12 18H6V24H12V18Z" fill="#B14E05"/>
<path d="M12 12H6V18H12V12Z" fill="#DC7B05"/>
<path d="M266 12H12V18H18H260H266V12Z" fill="#FA9305"/>
<path d="M12 6V12H266V6H12Z" fill="#DC7B05"/>
<path d="M254 29.5H248V35.5H254V29.5Z" fill="#CC7E30"/>
<path d="M266 18H260V24H266V18Z" fill="#918C74"/>
<path d="M272 6H266V12H272V6Z" fill="#44121C"/>
<path d="M6 309.5V315.5H12V309.5H6Z" fill="#5B2B2A"/>
<path d="M12 303.5V309.5H18V303.5H12Z" fill="#918C74"/>
<path d="M18 298V303.5L23.5 303.509V298H18Z" fill="#B14E05"/>
<path d="M23.5 298H29.5V292H23.5V298Z" fill="#D9D9D9"/>
</svg>
