<svg width="345" height="231" viewBox="0 0 345 231" fill="none" xmlns="http://www.w3.org/2000/svg">
<g clip-path="url(#clip0_42_265)">
<path d="M12 0V6H333V0H12Z" fill="#44121C"/>
<path d="M6 6V12H12V6H6Z" fill="#44121C"/>
<path d="M6 12H0V225H6V219V24V18V12Z" fill="#44121C"/>
<path d="M345 12H339V213.5V219H345V12Z" fill="#44121C"/>
<path d="M339 225V219H333V225H339Z" fill="#44121C"/>
<path d="M339 213.5H333V219H339V213.5Z" fill="#B14E05"/>
<path d="M333 219V213.5H327V219H333Z" fill="#918C74"/>
<path d="M333 219H327V225H333V219Z" fill="#B14E05"/>
<path d="M327 225V219H321V225H327Z" fill="#5B2B2A"/>
<path d="M327 219V213.5L321 213.49L23.5 213.009L18 213V219H321H327Z" fill="#B14E05"/>
<path d="M321 213.49L327 213.5V207.5H321V213.49Z" fill="#B14E05"/>
<path d="M327 213.5H333V24H327V207.5V213.5Z" fill="#B14E05"/>
<path d="M339 12H333V18V24V213.5H339V12Z" fill="#DC7B05"/>
<path d="M327 24H321V29.5V35.5V207.5H327V24Z" fill="#853605"/>
<path d="M315 207.5H321V35.5H315V201.5V207.5Z" fill="#ECA65F"/>
<path d="M315 207.5V201.5H309.5V207.5H315Z" fill="#D9D9D9"/>
<path d="M315 35.5H29.5V201.5H309.5H315V35.5Z" fill="#FFD284"/>
<path d="M29.5 201.5V207.5H309.5V201.5H29.5Z" fill="#FFE5BA"/>
<path d="M23.5 213.009L321 213.49V207.5H315H309.5H29.5H23.5V213.009Z" fill="#853605"/>
<path d="M333 231V225H327H321H12H6V231H333Z" fill="#44121C"/>
<path d="M321 225V219H18H12V225H321Z" fill="#853605"/>
<path d="M29.5 35.5H23.5V201.5H29.5V35.5Z" fill="#FFE1AE"/>
<path d="M315 29.5H23.5V35.5H29.5H315V29.5Z" fill="#ECA65F"/>
<path d="M23.5 29.5H18V207.5H23.5V201.5V35.5V29.5Z" fill="#853605"/>
<path d="M18 24V29.5H23.5V24H18Z" fill="#B14E05"/>
<path d="M321 29.5V24H23.5V29.5H315H321Z" fill="#853605"/>
<path d="M327 24V18H18V24H23.5H321H327Z" fill="#B14E05"/>
<path d="M12 18V24H18V18H12Z" fill="#918C74"/>
<path d="M12 213H18V207.5V29.5V24H12V213Z" fill="#B14E05"/>
<path d="M6 219H12V213V24H6V219Z" fill="#853605"/>
<path d="M12 18H6V24H12V18Z" fill="#B14E05"/>
<path d="M12 12H6V18H12V12Z" fill="#DC7B05"/>
<path d="M333 12H12V18H18H327H333V12Z" fill="#FA9305"/>
<path d="M12 6V12H333V6H12Z" fill="#DC7B05"/>
<path d="M321 29.5H315V35.5H321V29.5Z" fill="#CC7E30"/>
<path d="M333 18H327V24H333V18Z" fill="#918C74"/>
<path d="M339 6H333V12H339V6Z" fill="#44121C"/>
<path d="M6 219V225H12V219H6Z" fill="#5B2B2A"/>
<path d="M12 213V219H18V213H12Z" fill="#918C74"/>
<path d="M18 207.5V213L23.5 213.009V207.5H18Z" fill="#B14E05"/>
<path d="M23.5 207.5H29.5V201.5H23.5V207.5Z" fill="#D9D9D9"/>
</g>
<defs>
<clipPath id="clip0_42_265">
<rect width="345" height="231" fill="white"/>
</clipPath>
</defs>
</svg>
